<?xml version="1.0" encoding="utf-8"?>
<!-- Generator: Adobe Illustrator 16.2.1, SVG Export Plug-In . SVG Version: 6.00 Build 0)  -->
<!DOCTYPE svg PUBLIC "-//W3C//DTD SVG 1.1//EN" "http://www.w3.org/Graphics/SVG/1.1/DTD/svg11.dtd">
<svg version="1.1" id="Layer_1" xmlns="http://www.w3.org/2000/svg" xmlns:xlink="http://www.w3.org/1999/xlink" x="0px" y="0px"
	 width="100px" height="110px" viewBox="0 0 100 110" enable-background="new 0 0 100 110" xml:space="preserve">
<g>
	<path d="M218.075,2.728c-1.91,0-2.249-0.37-2.433-0.568c-0.301-0.328-0.598-0.66-0.889-0.995c-0.472,0.115-0.919,0.171-1.359,0.171
		l-0.115-0.001c-0.254-0.007-0.869-0.118-1.18-0.999c-0.192-0.547-0.336-1.627,0.349-2.208c0.165-0.138,0.327-0.264,0.487-0.389
		l0.336-0.266c0.144-0.115,0.252-0.219,0.33-0.318c-0.666-0.417-1.451-1.075-1.647-1.903c-0.274-1.174,0.205-2.343,1.223-2.981
		c0.068-0.043,0.165-0.095,0.271-0.149c-0.058-0.175-0.144-0.346-0.261-0.517c-0.41-0.601-1.002-1.04-1.811-1.338
		c-0.386-0.144-0.75-0.213-1.111-0.213c-0.063,0-0.127,0.002-0.19,0.006c-0.187,0.014-0.351,0.053-0.495,0.12
		c-0.255,0.118-0.438,0.292-0.496,0.758c-0.023,0.195,0.044,0.808,0.088,1.063l0.082,0.473l-0.316,0.37
		c-0.274,0.312-0.607,0.369-1.166,0.369l-0.119-0.003c-1.077-0.046-2.039-0.352-2.85-0.907c-1.066-0.731-1.77-1.757-2.087-3.05
		c-0.472-1.929-0.126-3.69,1.026-5.234c0.873-1.169,2.125-1.894,3.621-2.096c0.354-0.047,0.707-0.072,1.053-0.072
		c1.746,0,3.386,0.608,4.874,1.808c0.286,0.23,0.562,0.478,0.827,0.745c-0.127-0.277-0.619-1.335-0.619-1.335
		c-0.465-1.006-0.902-1.998-1.178-3.083c-0.445-1.774-0.346-3.461,0.3-5.014c0.38-0.917,0.94-1.776,1.764-2.703
		c0.591-0.666,1.233-1.268,1.854-1.85l0.277-0.259c0.204-0.193,0.568-0.417,1.562-0.417s1.357,0.225,1.564,0.421l0.27,0.252
		c0.622,0.583,1.265,1.186,1.857,1.854c0.821,0.925,1.383,1.784,1.765,2.702c0.646,1.556,0.743,3.243,0.296,5.016
		c-0.273,1.091-0.711,2.08-1.174,3.08c0,0-0.491,1.057-0.619,1.337c0.266-0.268,0.542-0.516,0.826-0.746
		c1.49-1.199,3.13-1.807,4.873-1.807c0.347,0,0.701,0.024,1.055,0.072c1.494,0.203,2.745,0.927,3.62,2.095
		c1.153,1.545,1.499,3.307,1.026,5.235c-0.319,1.295-1.022,2.322-2.09,3.051c-0.809,0.554-1.771,0.86-2.856,0.906l-0.108,0.002
		c-0.402,0-0.953,0-1.266-0.505l-0.168-0.271l0.023-0.357l0.012-0.09c0.111-0.786,0.088-1.025,0.084-1.049
		c-0.059-0.468-0.24-0.642-0.496-0.76c-0.146-0.067-0.309-0.106-0.5-0.12c-0.059-0.004-0.122-0.006-0.187-0.006
		c-0.362,0-0.725,0.069-1.106,0.212c-0.811,0.299-1.403,0.738-1.816,1.342c-0.113,0.168-0.199,0.339-0.257,0.513
		c0.106,0.054,0.203,0.106,0.272,0.15c1.018,0.64,1.496,1.811,1.217,2.982c-0.192,0.828-0.979,1.486-1.646,1.903
		c0.078,0.1,0.187,0.202,0.326,0.314l0.321,0.253c0.166,0.131,0.335,0.262,0.498,0.397c0.693,0.59,0.55,1.671,0.356,2.219
		c-0.31,0.879-0.924,0.99-1.173,0.997l-0.121,0.001c-0.441,0-0.891-0.056-1.361-0.171c-0.295,0.338-0.588,0.667-0.887,0.993
		C220.323,2.36,219.982,2.728,218.075,2.728z"/>
	<path fill="#FFFFFF" d="M218.077-29.258c0.387,0,0.772,0.048,0.876,0.146c0.705,0.664,1.422,1.317,2.068,2.045
		c0.647,0.73,1.211,1.515,1.588,2.422c0.594,1.431,0.627,2.898,0.25,4.387c-0.254,1.012-0.676,1.963-1.111,2.906
		c-0.438,0.945-0.887,1.888-1.285,2.848c-0.378,0.906-0.083,2.255,0.243,2.255c0.06,0,0.119-0.045,0.177-0.145
		c0.693-1.204,1.52-2.294,2.607-3.169c1.269-1.022,2.677-1.586,4.246-1.586c0.301,0,0.606,0.021,0.92,0.063
		c1.207,0.164,2.217,0.72,2.953,1.703c0.986,1.321,1.246,2.804,0.854,4.397c-0.252,1.023-0.801,1.862-1.682,2.464
		c-0.703,0.482-1.494,0.697-2.337,0.733c-0.02,0.001-0.041,0.001-0.064,0.001c-0.17,0-0.419-0.024-0.415-0.031
		c0.002-0.031,0.147-0.939,0.095-1.368c-0.088-0.701-0.412-1.238-1.07-1.542c-0.268-0.124-0.551-0.188-0.846-0.209
		c-0.088-0.006-0.174-0.009-0.26-0.009c-0.499,0-0.984,0.099-1.455,0.275c-0.933,0.344-1.726,0.883-2.294,1.714
		c-0.331,0.489-0.518,1.026-0.518,1.623c0,0.065,0.598,0.309,0.825,0.452c0.656,0.413,0.957,1.147,0.777,1.904
		c-0.191,0.819-1.752,1.626-1.889,1.659c0.037,0.167,0.062,0.333,0.111,0.493c0.135,0.455,0.442,0.789,0.805,1.078
		c0.268,0.215,0.543,0.421,0.807,0.64c0.326,0.277,0.08,1.438-0.205,1.446c-0.031,0-0.062,0.001-0.094,0.001
		c-0.5,0-0.986-0.091-1.459-0.235c-0.056-0.017-0.104-0.025-0.146-0.025c-0.1,0-0.174,0.044-0.256,0.141
		c-0.369,0.427-0.744,0.851-1.125,1.268c-0.149,0.163-0.924,0.244-1.695,0.244c-0.772,0-1.545-0.082-1.694-0.244
		c-0.383-0.417-0.758-0.84-1.125-1.268c-0.082-0.097-0.157-0.141-0.255-0.141c-0.044,0-0.092,0.009-0.146,0.025
		c-0.476,0.145-0.961,0.235-1.459,0.235c-0.029,0-0.062,0-0.093-0.001c-0.288-0.008-0.532-1.168-0.207-1.446
		c0.265-0.218,0.539-0.425,0.806-0.64c0.36-0.289,0.67-0.623,0.807-1.078c0.047-0.16,0.074-0.326,0.111-0.493
		c-0.137-0.032-1.697-0.84-1.892-1.659c-0.178-0.757,0.122-1.492,0.78-1.904c0.229-0.144,0.826-0.387,0.826-0.452
		c0-0.597-0.188-1.134-0.521-1.623c-0.567-0.831-1.36-1.37-2.29-1.714c-0.475-0.176-0.96-0.275-1.46-0.275
		c-0.086,0-0.172,0.003-0.259,0.009c-0.293,0.021-0.578,0.086-0.846,0.209c-0.656,0.304-0.981,0.84-1.069,1.542
		c-0.055,0.429,0.09,1.337,0.097,1.368c0.002,0.007-0.248,0.031-0.416,0.031c-0.023,0-0.047,0-0.065-0.001
		c-0.845-0.036-1.636-0.25-2.339-0.733c-0.879-0.602-1.43-1.44-1.68-2.464c-0.391-1.593-0.131-3.076,0.855-4.397
		c0.734-0.983,1.744-1.54,2.953-1.703c0.312-0.042,0.619-0.063,0.919-0.063c1.569,0,2.979,0.565,4.247,1.586
		c1.088,0.875,1.914,1.965,2.605,3.169c0.057,0.1,0.117,0.145,0.178,0.145c0.326,0,0.619-1.349,0.244-2.255
		c-0.398-0.96-0.849-1.903-1.285-2.848c-0.437-0.943-0.859-1.894-1.114-2.906c-0.374-1.488-0.341-2.956,0.253-4.387
		c0.376-0.907,0.939-1.692,1.588-2.422c0.645-0.728,1.363-1.381,2.068-2.045C217.303-29.21,217.689-29.258,218.077-29.258
		 M218.077-31.258c-1.05,0-1.744,0.213-2.251,0.693l-0.271,0.254c-0.639,0.598-1.299,1.216-1.921,1.918
		c-0.897,1.011-1.515,1.959-1.938,2.982c-0.729,1.755-0.844,3.653-0.344,5.64c0.114,0.46,0.256,0.899,0.414,1.327
		c-1.064-0.469-2.186-0.705-3.351-0.705c-0.39,0-0.789,0.027-1.187,0.081c-1.77,0.239-3.252,1.1-4.289,2.488
		c-1.32,1.77-1.734,3.869-1.195,6.069c0.372,1.519,1.234,2.776,2.492,3.639c0.966,0.663,2.104,1.026,3.383,1.081
		c0.027,0.002,0.088,0.003,0.15,0.003c0.451,0,1.291,0,1.916-0.707l0.676-0.764l-0.211-0.943c-0.034-0.223-0.071-0.572-0.072-0.733
		c0.021-0.003,0.045-0.007,0.074-0.009c0.031-0.002,0.07-0.003,0.111-0.003c0.241,0,0.491,0.049,0.764,0.15
		c0.447,0.166,0.793,0.373,1.062,0.64c-0.999,0.908-1.431,2.271-1.109,3.635c0.158,0.671,0.563,1.242,1.043,1.706
		c-0.068,0.054-0.137,0.109-0.203,0.165c-1.047,0.89-1.008,2.341-0.663,3.319c0.53,1.508,1.735,1.657,2.091,1.667l0.146,0.001
		c0.328,0,0.655-0.026,0.989-0.078c0.175,0.195,0.349,0.387,0.522,0.578c0.49,0.535,1.218,0.892,3.168,0.892
		c1.947,0,2.674-0.354,3.166-0.887c0.177-0.194,0.352-0.388,0.523-0.582c0.334,0.052,0.664,0.078,0.992,0.078l0.141-0.001
		c0.363-0.01,1.566-0.159,2.098-1.665c0.345-0.979,0.383-2.432-0.643-3.304c-0.078-0.064-0.151-0.124-0.225-0.182
		c0.479-0.464,0.885-1.036,1.041-1.708c0.323-1.359-0.107-2.723-1.107-3.634c0.268-0.265,0.613-0.473,1.062-0.638
		c0.274-0.102,0.522-0.151,0.763-0.151c0.041,0,0.081,0.001,0.122,0.004c0.019,0.001,0.043,0.004,0.067,0.008
		c-0.002,0.034-0.006,0.255-0.081,0.782c-0.019,0.119-0.022,0.192-0.022,0.208l-0.041,0.636l0.336,0.542
		c0.604,0.98,1.664,0.98,2.115,0.98c0.062,0,0.122-0.001,0.176-0.004c1.254-0.054,2.392-0.418,3.357-1.081
		c1.255-0.858,2.118-2.115,2.492-3.635c0.539-2.203,0.126-4.302-1.195-6.072c-1.04-1.39-2.521-2.25-4.287-2.489
		c-0.398-0.054-0.798-0.081-1.188-0.081c-1.166,0-2.286,0.237-3.354,0.707c0.158-0.429,0.301-0.872,0.415-1.329
		c0.502-1.982,0.388-3.881-0.342-5.64c-0.427-1.025-1.043-1.973-1.94-2.983c-0.623-0.702-1.283-1.32-1.922-1.919l-0.271-0.254
		C219.824-31.044,219.129-31.258,218.077-31.258L218.077-31.258z"/>
</g>
<g>
</g>
<circle fill="#E9523B" stroke="#FFFFFF" stroke-width="3" stroke-miterlimit="10" cx="50.5" cy="56.913" r="48.087"/>
<polygon stroke="#000000" stroke-width="2" stroke-miterlimit="10" points="65.727,103.564 50.739,11.379 50.421,97.186 
	50.402,97.186 50.739,11.379 36.062,103.564 48.821,5 52.967,5 "/>
<rect x="29.283" y="23.66" fill="#95A5A6" stroke="#000000" stroke-width="2" stroke-miterlimit="10" width="43.221" height="48.804"/>
<rect x="35.415" y="23.66" fill="#FFFFFF" stroke="#000000" stroke-width="2" stroke-miterlimit="10" width="30.958" height="42.638"/>
<rect x="42.675" y="19.833" fill="none" stroke="#000000" stroke-width="2" stroke-miterlimit="10" width="16.438" height="9.25"/>
<rect x="25.615" y="72.305" width="50.559" height="3.509"/>
<rect x="39.974" y="32.751" fill="#2A3E50" stroke="#000000" stroke-width="2" stroke-miterlimit="10" width="10.919" height="12.229"/>
<rect x="44.301" y="40.566" fill="#00BA9C" stroke="#000000" stroke-width="2" stroke-miterlimit="10" width="18.321" height="18.927"/>
<line fill="none" stroke="#000000" stroke-width="2" stroke-miterlimit="10" x1="19.878" y1="92.878" x2="80.484" y2="92.878"/>
</svg>
