<?xml version="1.0" encoding="utf-8"?>
<!-- Generator: Adobe Illustrator 16.2.1, SVG Export Plug-In . SVG Version: 6.00 Build 0)  -->
<!DOCTYPE svg PUBLIC "-//W3C//DTD SVG 1.1//EN" "http://www.w3.org/Graphics/SVG/1.1/DTD/svg11.dtd">
<svg version="1.1" xmlns="http://www.w3.org/2000/svg" xmlns:xlink="http://www.w3.org/1999/xlink" x="0px" y="0px" width="100px"
	 height="110px" viewBox="0 0 100 110" enable-background="new 0 0 100 110" xml:space="preserve">
<g id="Layer_2">
	<circle fill="#F2C204" stroke="#FFFFFF" stroke-width="3" stroke-miterlimit="10" cx="50.5" cy="56.913" r="48.087"/>
</g>
<g id="Layer_1">
	<polygon fill="#33495E" stroke="#000000" stroke-width="2" stroke-miterlimit="10" points="715.5,82 694.5,80.5 629,110.5 
		595,135.5 626.5,147 	"/>
	<g>
	</g>
	<polyline fill="none" stroke="#000000" stroke-width="2" stroke-miterlimit="10" points="670,211 703,142.5 749.5,170 749,178 
		771,176 772.5,158 730,94.5 732,75.5 720.5,82.5 710.501,86.167 	"/>
	<line fill="none" stroke="#000000" stroke-width="2" stroke-miterlimit="10" x1="730.5" y1="98" x2="717" y2="107.5"/>
	<polyline fill="none" stroke="#000000" stroke-width="2" stroke-miterlimit="10" points="709.5,88 742,151 660.5,133 	"/>
	<polygon fill="none" stroke="#000000" stroke-width="2" stroke-miterlimit="10" points="620,69.5 630.5,69.5 660.5,79 657,73.5 
		658.5,62 644,47.5 629.5,51 	"/>
	<polyline fill="none" stroke="#000000" stroke-width="2" stroke-miterlimit="10" points="656,79.5 648,90.5 643.5,89 633,95 
		630,89 626.5,89.5 622,68 	"/>
	<polyline fill="none" stroke="#000000" stroke-width="2" stroke-miterlimit="10" points="623.5,91.5 617,103 625,123.5 651,130 
		666,128.5 668.5,132 663,136.5 663,142.5 645.5,139 638.5,142 606.5,129.5 591,94 	"/>
	<polyline fill="none" stroke="#000000" stroke-width="2" stroke-miterlimit="10" points="629,91 640.5,115.5 655.5,121.5 	"/>
	<polyline fill="#F2C204" points="24.334,39.253 31.979,35.048 34.867,35.685 40.006,28.295 33.89,24.855 23.697,22.816 
		20.002,27.021 	"/>
	<polyline fill="#00BA9C" stroke="#000000" stroke-width="2" stroke-miterlimit="10" points="46.079,97.1 62.898,62.188 
		86.597,76.203 88.382,79.771 97.556,79.262 98.32,70.088 76.659,37.724 77.679,28.04 71.817,31.608 66.722,33.477 43.361,49.021 
		22.125,63.122 	"/>
	<line fill="none" stroke="#000000" stroke-width="2" stroke-miterlimit="10" x1="77.424" y1="39.508" x2="70.544" y2="43.33"/>
	<polygon fill="#33495E" stroke="#000000" stroke-width="2" stroke-miterlimit="10" points="69.269,32.882 58.565,30.589 
		25.183,45.878 7.855,58.62 23.909,64.481 	"/>
	<polyline fill="none" stroke="#000000" stroke-width="2" stroke-miterlimit="10" points="69.269,32.882 58.565,30.589 
		25.183,45.878 7.855,58.62 23.909,64.481 	"/>
	<polyline fill="#2381B9" points="21.616,24.048 23.315,35.26 25.693,34.921 28.581,43.755 25.013,45.284 21.616,48.172 
		23.145,52.505 35.547,55.986 44.041,55.052 45.314,56.836 42.172,59.724 42.512,62.188 33.593,60.403 30.025,61.933 13.716,55.562 
		5.816,37.469 	"/>
	<polyline fill="none" stroke="#000000" stroke-width="2" stroke-miterlimit="10" points="38.944,30.079 34.867,35.685 
		32.573,34.921 27.222,37.979 25.693,34.921 23.909,35.176 21.615,24.218 	"/>
	<line fill="none" stroke="#000000" stroke-width="2" stroke-miterlimit="10" x1="25.183" y1="35.94" x2="29.091" y2="44.095"/>
	<polygon fill="#E87F1F" stroke="#000000" stroke-width="2" stroke-miterlimit="10" points="20.596,24.982 25.948,24.982 
		41.238,29.824 39.454,27.021 40.218,21.16 32.828,13.77 25.438,15.553 	"/>
	<polyline fill="#F2C204" points="32.914,60.319 42.512,62.188 42.512,59.129 44.976,56.242 43.617,54.883 35.547,55.986 	"/>
	<polyline fill="none" stroke="#000000" stroke-width="2" stroke-miterlimit="10" points="5.816,37.469 13.716,55.562 
		30.025,61.933 33.593,60.403 42.512,62.188 42.512,59.129 45.314,56.836 44.041,55.052 36.396,55.816 23.145,52.505 19.067,42.056 
		22.38,36.195 	"/>
	<line fill="none" stroke="#000000" stroke-width="2" stroke-miterlimit="10" x1="32.658" y1="60.573" x2="36.396" y2="55.816"/>
	<line fill="none" stroke="#000000" stroke-width="2" stroke-miterlimit="10" x1="77.469" y1="65.349" x2="41.238" y2="57.346"/>
	<line fill="none" stroke="#000000" stroke-width="2" stroke-miterlimit="10" x1="66.211" y1="34.411" x2="80.237" y2="61.6"/>
	<circle fill="none" stroke="#000000" stroke-width="2" stroke-miterlimit="10" cx="80.397" cy="64.821" r="3.398"/>
</g>
</svg>
