<?xml version="1.0" encoding="utf-8"?>
<!-- Generator: Adobe Illustrator 16.2.1, SVG Export Plug-In . SVG Version: 6.00 Build 0)  -->
<!DOCTYPE svg PUBLIC "-//W3C//DTD SVG 1.1//EN" "http://www.w3.org/Graphics/SVG/1.1/DTD/svg11.dtd">
<svg version="1.1" xmlns="http://www.w3.org/2000/svg" xmlns:xlink="http://www.w3.org/1999/xlink" x="0px" y="0px" width="100px"
	 height="110px" viewBox="0 0 100 110" enable-background="new 0 0 100 110" xml:space="preserve">
<g id="Layer_2">
	<circle fill="#2381B9" stroke="#FFFFFF" stroke-width="3" stroke-miterlimit="10" cx="49.5" cy="57.913" r="48.087"/>
	<polygon fill="#95A5A6" points="28.808,36.655 47.875,33.75 66.875,37.5 66.75,39.625 28.625,37.875 	"/>
	<polyline fill="#ECF0F1" points="3.246,38.29 3.246,84.795 92.739,84.795 93.125,38.625 	"/>
	<polygon fill="#8C9899" points="3.246,38.29 92.739,38.29 92.75,46.875 3,45.125 	"/>
	<polygon fill="#95A5A6" points="34.25,45.875 30.375,43.5 30.125,73.75 33.875,73.25 	"/>
	<polygon fill="#95A5A6" points="45.25,46 41.375,43.625 41.125,73.875 44.875,73.375 	"/>
	<polygon fill="#95A5A6" points="55.125,45.875 51.25,43.5 51,73.75 54.75,73.25 	"/>
	<polygon fill="#95A5A6" points="66.125,46 62.25,43.625 62,73.875 65.75,73.375 	"/>
	<polygon fill="none" stroke="#000000" stroke-width="2" stroke-miterlimit="10" points="67.178,45.027 28.808,45.027 
		28.808,36.655 47.46,33.99 67.178,36.655 	"/>
	<g>
		<polygon fill="none" stroke="#000000" stroke-width="2" stroke-miterlimit="10" points="34.003,74.136 30.007,74.136 
			30.273,44.027 33.737,44.027 		"/>
		<polygon fill="none" stroke="#000000" stroke-width="2" stroke-miterlimit="10" points="44.573,74.136 40.577,74.136 
			40.843,44.027 44.307,44.027 		"/>
		<polygon fill="none" stroke="#000000" stroke-width="2" stroke-miterlimit="10" points="54.609,74.136 50.613,74.136 
			50.878,44.027 54.344,44.027 		"/>
		<polygon fill="none" stroke="#000000" stroke-width="2" stroke-miterlimit="10" points="65.711,74.136 62.248,74.136 
			62.515,44.027 65.979,44.027 		"/>
	</g>
	<polygon fill="none" stroke="#000000" stroke-width="2" stroke-miterlimit="10" points="73.706,84.795 22.279,84.795 
		27.609,74.136 68.377,74.136 	"/>
	<line fill="none" stroke="#000000" stroke-width="2" stroke-miterlimit="10" x1="29.608" y1="76.802" x2="66.379" y2="76.802"/>
	<line fill="none" stroke="#000000" stroke-width="2" stroke-miterlimit="10" x1="28.275" y1="79.598" x2="67.711" y2="79.598"/>
	<line fill="none" stroke="#000000" stroke-width="2" stroke-miterlimit="10" x1="26.276" y1="82.396" x2="69.708" y2="82.396"/>
	<rect x="3.246" y="38.29" fill="none" stroke="#000000" stroke-width="2" stroke-miterlimit="10" width="89.493" height="35.953"/>
	
		<rect x="3.246" y="74.242" fill="none" stroke="#000000" stroke-width="2" stroke-miterlimit="10" width="89.493" height="10.553"/>
	<rect x="6.723" y="48.451" fill="none" stroke="#000000" stroke-width="2" stroke-miterlimit="10" width="7.816" height="11.332"/>
	<rect x="6.723" y="62.91" fill="none" stroke="#000000" stroke-width="2" stroke-miterlimit="10" width="7.816" height="8.988"/>
	<line fill="none" stroke="#000000" stroke-width="2" stroke-miterlimit="10" x1="9.264" y1="48.385" x2="9.264" y2="59.914"/>
	<line fill="none" stroke="#000000" stroke-width="2" stroke-miterlimit="10" x1="12" y1="48.385" x2="12" y2="59.914"/>
	<line fill="none" stroke="#000000" stroke-width="2" stroke-miterlimit="10" x1="6.529" y1="51.121" x2="14.736" y2="51.121"/>
	<line fill="none" stroke="#000000" stroke-width="2" stroke-miterlimit="10" x1="6.529" y1="53.855" x2="14.736" y2="53.855"/>
	<line fill="none" stroke="#000000" stroke-width="2" stroke-miterlimit="10" x1="6.529" y1="56.983" x2="14.736" y2="56.983"/>
	<line fill="none" stroke="#000000" stroke-width="2" stroke-miterlimit="10" x1="9.264" y1="62.909" x2="9.264" y2="71.703"/>
	<line fill="none" stroke="#000000" stroke-width="2" stroke-miterlimit="10" x1="12" y1="62.909" x2="12" y2="71.703"/>
	<line fill="none" stroke="#000000" stroke-width="2" stroke-miterlimit="10" x1="6.529" y1="68.771" x2="14.736" y2="68.771"/>
	<line fill="none" stroke="#000000" stroke-width="2" stroke-miterlimit="10" x1="6.529" y1="65.646" x2="14.736" y2="65.646"/>
	<rect x="13.823" y="77.436" fill="none" stroke="#000000" stroke-width="2" stroke-miterlimit="10" width="5.21" height="4.27"/>
	
		<rect x="18.838" y="48.451" fill="none" stroke="#000000" stroke-width="2" stroke-miterlimit="10" width="7.816" height="11.332"/>
	<rect x="18.838" y="62.91" fill="none" stroke="#000000" stroke-width="2" stroke-miterlimit="10" width="7.816" height="8.988"/>
	<line fill="none" stroke="#000000" stroke-width="2" stroke-miterlimit="10" x1="21.379" y1="48.385" x2="21.379" y2="59.914"/>
	<line fill="none" stroke="#000000" stroke-width="2" stroke-miterlimit="10" x1="24.114" y1="48.385" x2="24.114" y2="59.914"/>
	<line fill="none" stroke="#000000" stroke-width="2" stroke-miterlimit="10" x1="18.643" y1="51.121" x2="26.85" y2="51.121"/>
	<line fill="none" stroke="#000000" stroke-width="2" stroke-miterlimit="10" x1="18.643" y1="53.855" x2="26.85" y2="53.855"/>
	<line fill="none" stroke="#000000" stroke-width="2" stroke-miterlimit="10" x1="18.643" y1="56.983" x2="26.85" y2="56.983"/>
	<line fill="none" stroke="#000000" stroke-width="2" stroke-miterlimit="10" x1="21.379" y1="62.909" x2="21.379" y2="71.703"/>
	<line fill="none" stroke="#000000" stroke-width="2" stroke-miterlimit="10" x1="24.114" y1="62.909" x2="24.114" y2="71.703"/>
	<line fill="none" stroke="#000000" stroke-width="2" stroke-miterlimit="10" x1="18.643" y1="68.771" x2="26.85" y2="68.771"/>
	<line fill="none" stroke="#000000" stroke-width="2" stroke-miterlimit="10" x1="18.643" y1="65.646" x2="26.85" y2="65.646"/>
	
		<rect x="68.471" y="48.451" fill="none" stroke="#000000" stroke-width="2" stroke-miterlimit="10" width="7.815" height="11.332"/>
	<rect x="68.471" y="62.91" fill="none" stroke="#000000" stroke-width="2" stroke-miterlimit="10" width="7.815" height="8.988"/>
	<line fill="none" stroke="#000000" stroke-width="2" stroke-miterlimit="10" x1="71.011" y1="48.385" x2="71.011" y2="59.914"/>
	<line fill="none" stroke="#000000" stroke-width="2" stroke-miterlimit="10" x1="73.746" y1="48.385" x2="73.746" y2="59.914"/>
	<line fill="none" stroke="#000000" stroke-width="2" stroke-miterlimit="10" x1="68.275" y1="51.121" x2="76.482" y2="51.121"/>
	<line fill="none" stroke="#000000" stroke-width="2" stroke-miterlimit="10" x1="68.275" y1="53.855" x2="76.482" y2="53.855"/>
	<line fill="none" stroke="#000000" stroke-width="2" stroke-miterlimit="10" x1="68.275" y1="56.983" x2="76.482" y2="56.983"/>
	<line fill="none" stroke="#000000" stroke-width="2" stroke-miterlimit="10" x1="71.011" y1="62.909" x2="71.011" y2="71.703"/>
	<line fill="none" stroke="#000000" stroke-width="2" stroke-miterlimit="10" x1="73.746" y1="62.909" x2="73.746" y2="71.703"/>
	<line fill="none" stroke="#000000" stroke-width="2" stroke-miterlimit="10" x1="68.275" y1="68.771" x2="76.482" y2="68.771"/>
	<line fill="none" stroke="#000000" stroke-width="2" stroke-miterlimit="10" x1="68.275" y1="65.646" x2="76.482" y2="65.646"/>
	
		<rect x="80.977" y="48.451" fill="none" stroke="#000000" stroke-width="2" stroke-miterlimit="10" width="7.814" height="11.332"/>
	<rect x="80.977" y="62.91" fill="none" stroke="#000000" stroke-width="2" stroke-miterlimit="10" width="7.814" height="8.988"/>
	<line fill="none" stroke="#000000" stroke-width="2" stroke-miterlimit="10" x1="83.517" y1="48.385" x2="83.517" y2="59.914"/>
	<line fill="none" stroke="#000000" stroke-width="2" stroke-miterlimit="10" x1="86.252" y1="48.385" x2="86.252" y2="59.914"/>
	<line fill="none" stroke="#000000" stroke-width="2" stroke-miterlimit="10" x1="80.781" y1="51.121" x2="88.987" y2="51.121"/>
	<line fill="none" stroke="#000000" stroke-width="2" stroke-miterlimit="10" x1="80.781" y1="53.855" x2="88.987" y2="53.855"/>
	<line fill="none" stroke="#000000" stroke-width="2" stroke-miterlimit="10" x1="80.781" y1="56.983" x2="88.987" y2="56.983"/>
	<line fill="none" stroke="#000000" stroke-width="2" stroke-miterlimit="10" x1="83.517" y1="62.909" x2="83.517" y2="71.703"/>
	<line fill="none" stroke="#000000" stroke-width="2" stroke-miterlimit="10" x1="86.252" y1="62.909" x2="86.252" y2="71.703"/>
	<line fill="none" stroke="#000000" stroke-width="2" stroke-miterlimit="10" x1="80.781" y1="68.771" x2="88.987" y2="68.771"/>
	<line fill="none" stroke="#000000" stroke-width="2" stroke-miterlimit="10" x1="80.781" y1="65.646" x2="88.987" y2="65.646"/>
	<line fill="none" stroke="#000000" stroke-width="2" stroke-miterlimit="10" x1="3.206" y1="45.844" x2="93.352" y2="45.844"/>
	<line fill="none" stroke="#000000" stroke-width="2" stroke-miterlimit="10" x1="30.074" y1="71.995" x2="34.08" y2="71.995"/>
	<line fill="none" stroke="#000000" stroke-width="2" stroke-miterlimit="10" x1="40.528" y1="71.995" x2="44.534" y2="71.995"/>
	<line fill="none" stroke="#000000" stroke-width="2" stroke-miterlimit="10" x1="50.982" y1="71.995" x2="54.988" y2="71.995"/>
	<line fill="none" stroke="#000000" stroke-width="2" stroke-miterlimit="10" x1="62.218" y1="71.995" x2="66.224" y2="71.995"/>
	<line fill="none" stroke="#000000" stroke-width="2" stroke-miterlimit="10" x1="16.375" y1="77" x2="16.375" y2="81.25"/>
	<rect x="76.52" y="77.436" fill="none" stroke="#000000" stroke-width="2" stroke-miterlimit="10" width="5.211" height="4.27"/>
	<line fill="none" stroke="#000000" stroke-width="2" stroke-miterlimit="10" x1="79.071" y1="77" x2="79.071" y2="81.25"/>
	<rect x="46.625" y="49.375" width="2.125" height="15.625"/>
	<rect x="36.125" y="49.375" width="2.125" height="15.625"/>
	<rect x="57.25" y="49.375" width="2.125" height="15.625"/>
</g>
<g id="Layer_1">
	<polygon fill="#33495E" stroke="#000000" stroke-width="2" stroke-miterlimit="10" points="715.5,82 694.5,80.5 629,110.5 
		595,135.5 626.5,147 	"/>
	<g>
	</g>
	<polyline fill="none" stroke="#000000" stroke-width="2" stroke-miterlimit="10" points="670,211 703,142.5 749.5,170 749,178 
		771,176 772.5,158 730,94.5 732,75.5 720.5,82.5 710.501,86.167 	"/>
	<line fill="none" stroke="#000000" stroke-width="2" stroke-miterlimit="10" x1="730.5" y1="98" x2="717" y2="107.5"/>
	<polyline fill="none" stroke="#000000" stroke-width="2" stroke-miterlimit="10" points="709.5,88 742,151 660.5,133 	"/>
	<polygon fill="none" stroke="#000000" stroke-width="2" stroke-miterlimit="10" points="620,69.5 630.5,69.5 660.5,79 657,73.5 
		658.5,62 644,47.5 629.5,51 	"/>
	<polyline fill="none" stroke="#000000" stroke-width="2" stroke-miterlimit="10" points="656,79.5 648,90.5 643.5,89 633,95 
		630,89 626.5,89.5 622,68 	"/>
	<polyline fill="none" stroke="#000000" stroke-width="2" stroke-miterlimit="10" points="623.5,91.5 617,103 625,123.5 651,130 
		666,128.5 668.5,132 663,136.5 663,142.5 645.5,139 638.5,142 606.5,129.5 591,94 	"/>
	<polyline fill="none" stroke="#000000" stroke-width="2" stroke-miterlimit="10" points="629,91 640.5,115.5 655.5,121.5 	"/>
</g>
</svg>
