<?xml version="1.0" encoding="utf-8"?>
<!-- Generator: Adobe Illustrator 16.2.1, SVG Export Plug-In . SVG Version: 6.00 Build 0)  -->
<!DOCTYPE svg PUBLIC "-//W3C//DTD SVG 1.1//EN" "http://www.w3.org/Graphics/SVG/1.1/DTD/svg11.dtd">
<svg version="1.1" xmlns="http://www.w3.org/2000/svg" xmlns:xlink="http://www.w3.org/1999/xlink" x="0px" y="0px" width="100px"
	 height="110px" viewBox="0 0 100 110" enable-background="new 0 0 100 110" xml:space="preserve">
<g id="Layer_2">
	<circle fill="#2A3E50" stroke="#FFFFFF" stroke-width="3" stroke-miterlimit="10" cx="49.5" cy="56.913" r="48.087"/>
	<polygon fill="#E9523B" points="72.667,100.667 77.772,19.833 53.332,8 29.667,13.667 32,28.667 15.333,35 16.667,54.667 
		29.667,72.667 34,105.667 	"/>
	<polygon fill="#ECF0F1" points="41.667,86 41.667,99.333 67.667,97.667 65.631,84.691 	"/>
	<polyline fill="none" stroke="#000000" stroke-width="2" stroke-miterlimit="10" points="30.436,27.809 14.229,34.755 
		17.059,56.366 30.951,74.117 34.038,108.076 38.412,108.333 72.885,101.644 75.973,50.191 77.772,19.833 53.332,8 30.951,13.402 
		31.208,41.443 	"/>
	<line fill="none" stroke="#000000" stroke-width="2" stroke-miterlimit="10" x1="71.084" y1="75.402" x2="31.723" y2="82.349"/>
	<polygon fill="none" stroke="#000000" stroke-width="2" stroke-miterlimit="10" points="65.631,84.691 66.519,97.545 
		44.338,100.614 42.785,87.569 	"/>
	<polygon fill="#C23F2A" points="45.365,16.395 52.231,12 70.636,21.339 68.438,35.896 66.79,61.167 56.627,55.124 58.55,32.601 	
		"/>
	<polygon fill="#ECF0F1" points="20.369,40.5 18,40.5 19.184,47.842 22.737,49.5 	"/>
</g>
<g id="Layer_1">
	<polygon fill="#33495E" stroke="#000000" stroke-width="2" stroke-miterlimit="10" points="715.5,82 694.5,80.5 629,110.5 
		595,135.5 626.5,147 	"/>
	<g>
	</g>
	<polyline fill="none" stroke="#000000" stroke-width="2" stroke-miterlimit="10" points="670,211 703,142.5 749.5,170 749,178 
		771,176 772.5,158 730,94.5 732,75.5 720.5,82.5 710.501,86.167 	"/>
	<line fill="none" stroke="#000000" stroke-width="2" stroke-miterlimit="10" x1="730.5" y1="98" x2="717" y2="107.5"/>
	<polyline fill="none" stroke="#000000" stroke-width="2" stroke-miterlimit="10" points="709.5,88 742,151 660.5,133 	"/>
	<polygon fill="none" stroke="#000000" stroke-width="2" stroke-miterlimit="10" points="620,69.5 630.5,69.5 660.5,79 657,73.5 
		658.5,62 644,47.5 629.5,51 	"/>
	<polyline fill="none" stroke="#000000" stroke-width="2" stroke-miterlimit="10" points="656,79.5 648,90.5 643.5,89 633,95 
		630,89 626.5,89.5 622,68 	"/>
	<polyline fill="none" stroke="#000000" stroke-width="2" stroke-miterlimit="10" points="623.5,91.5 617,103 625,123.5 651,130 
		666,128.5 668.5,132 663,136.5 663,142.5 645.5,139 638.5,142 606.5,129.5 591,94 	"/>
	<polyline fill="none" stroke="#000000" stroke-width="2" stroke-miterlimit="10" points="629,91 640.5,115.5 655.5,121.5 	"/>
</g>
</svg>
