<?xml version="1.0" encoding="utf-8"?>
<!-- Generator: Adobe Illustrator 16.2.1, SVG Export Plug-In . SVG Version: 6.00 Build 0)  -->
<!DOCTYPE svg PUBLIC "-//W3C//DTD SVG 1.1//EN" "http://www.w3.org/Graphics/SVG/1.1/DTD/svg11.dtd">
<svg version="1.1" xmlns="http://www.w3.org/2000/svg" xmlns:xlink="http://www.w3.org/1999/xlink" x="0px" y="0px" width="100px"
	 height="110px" viewBox="0 0 100 110" enable-background="new 0 0 100 110" xml:space="preserve">
<g id="Layer_2">
	<circle fill="#2D9ADC" stroke="#FFFFFF" stroke-width="3" stroke-miterlimit="10" cx="49.914" cy="51.913" r="48.087"/>
	<path fill="#ECF0F1" stroke="#000000" stroke-width="2" stroke-miterlimit="10" d="M40.998,75.177
		c0.037-0.029,0.067-0.062,0.104-0.091c4.004,3.744,10.247,4.104,14.669,0.593c4.868-3.866,5.68-10.947,1.814-15.816
		c-1.539-1.938-3.59-3.222-5.806-3.834c-0.193-0.983-0.612-1.936-1.277-2.773c-2.221-2.797-6.289-3.264-9.085-1.044
		c-0.57,0.454-1.037,0.984-1.411,1.564c-2.045-1.61-4.996-1.675-7.123,0.015c-1.655,1.313-2.386,3.356-2.111,5.31
		c-0.588,0.292-1.155,0.647-1.689,1.072c-4.143,3.291-4.834,9.317-1.545,13.46C30.829,77.775,36.856,78.467,40.998,75.177z"/>
	<polygon fill="#D55800" stroke="#000000" stroke-width="2" stroke-miterlimit="10" points="31.833,47.455 28.514,63.056 
		17.791,51.25 	"/>
	<polygon fill="#C23F2A" stroke="#000000" stroke-width="2" stroke-miterlimit="10" points="21.128,50.761 14.292,65.172 
		6.589,51.207 	"/>
	<polygon fill="#33495E" stroke="#000000" stroke-width="2" stroke-miterlimit="10" points="40.281,43.194 39.12,59.103 
		26.887,48.867 	"/>
	<polygon fill="#F2C204" stroke="#000000" stroke-width="2" stroke-miterlimit="10" points="47.969,34.07 52.798,49.271 
		37.639,44.31 	"/>
	<polygon fill="#00BA9C" stroke="#000000" stroke-width="2" stroke-miterlimit="10" points="68.112,21.44 55.849,31.639 
		54.735,15.728 	"/>
	<polygon fill="#2381B9" stroke="#000000" stroke-width="2" stroke-miterlimit="10" points="78.583,25.985 67.607,37.558 
		64.628,21.889 	"/>
	<polygon fill="#E9523B" stroke="#000000" stroke-width="2" stroke-miterlimit="10" points="86.521,28.622 75.674,40.318 
		72.521,24.682 	"/>
	<polygon fill="#F2C204" stroke="#000000" stroke-width="2" stroke-miterlimit="10" points="96.414,30.872 85.566,42.568 
		82.414,26.932 	"/>
	<path fill="none" stroke="#000000" stroke-width="2" stroke-miterlimit="10" d="M54.707,14.667c0,0,24.762,14.456,41.707,15.083"/>
	<path fill="none" stroke="#000000" stroke-width="2" stroke-miterlimit="10" d="M2.303,50.91c0,0,43.618,7.844,52.404-36.244"/>
	<path fill="#ECF0F1" stroke="#000000" stroke-width="2" stroke-miterlimit="10" d="M84.433,53.994c0.02-0.265,0.04-0.53,0.04-0.801
		c0-5.906-4.787-10.693-10.693-10.693c-1.423,0-2.776,0.286-4.017,0.791c-0.982-0.317-2.026-0.494-3.112-0.494
		c-5.578,0-10.1,4.522-10.1,10.1c0,0.408,0.031,0.809,0.079,1.205c-1.518,1.575-2.456,3.713-2.456,6.073
		c0,4.839,3.924,8.763,8.764,8.763c3.654,0,6.783-2.239,8.099-5.419c0.878,0.233,1.793,0.369,2.743,0.369
		c0.021,0,0.042-0.003,0.063-0.004c0.845,3.742,4.184,6.539,8.18,6.539c4.635,0,8.392-3.758,8.392-8.392
		C90.414,58.234,87.892,55.03,84.433,53.994z"/>
</g>
<g id="Layer_1">
</g>
</svg>
