<?xml version="1.0" encoding="utf-8"?>
<!-- Generator: Adobe Illustrator 16.2.1, SVG Export Plug-In . SVG Version: 6.00 Build 0)  -->
<!DOCTYPE svg PUBLIC "-//W3C//DTD SVG 1.1//EN" "http://www.w3.org/Graphics/SVG/1.1/DTD/svg11.dtd">
<svg version="1.1" id="Layer_1" xmlns="http://www.w3.org/2000/svg" xmlns:xlink="http://www.w3.org/1999/xlink" x="0px" y="0px"
	 width="140.26px" height="100px" viewBox="0 0 140.26 100" enable-background="new 0 0 140.26 100" xml:space="preserve">
<polygon fill="#33495E" points="40.962,19.333 46.409,19.982 60.795,25 60.795,16.667 53.289,8.77 45.898,10.553 "/>
<polygon fill="#33495E" points="35.711,60.75 41.961,57 89.711,27.75 78.211,25.5 42.077,43.172 26.961,53.5 "/>
<polygon fill="#00BA9C" points="40.711,18 26.961,32.75 32.211,49 50.486,56.934 56.008,50.986 39.711,44.5 50.461,38.5 
	45.711,27.25 "/>
<polyline fill="#F2C204" points="30.211,62.5 42.961,57 88.211,28 99.211,22 97.461,33.75 118.781,65.088 118.211,73.5 108.961,74 
	97.961,64 83.359,57.188 63.711,94.75 "/>
<g id="Layer_1_2_">
</g>
<line fill="none" stroke="#000000" stroke-width="4" stroke-miterlimit="10" x1="97.885" y1="34.508" x2="91.005" y2="38.33"/>
<polyline fill="none" stroke="#000000" stroke-width="4" stroke-miterlimit="10" points="33.961,50 28.316,53.62 35.211,60 
	42.586,58.122 63.822,44.021 87.184,28.477 92.277,26.608 98.141,23.04 97.12,32.724 118.781,65.088 118.018,74.262 108.843,74.771 
	107.059,71.203 83.359,57.188 66.54,92.1 "/>
<polyline fill="none" stroke="#000000" stroke-width="4" stroke-miterlimit="10" points="90.73,26.882 79.025,25.589 45.645,40.878 
	42.231,43.388 "/>
<polyline fill="none" stroke="#000000" stroke-width="4" stroke-miterlimit="10" points="59.404,25.079 55.328,30.685 
	53.034,29.921 47.684,32.979 46.154,29.921 44.37,30.176 42.076,19.218 "/>
<line fill="none" stroke="#000000" stroke-width="4" stroke-miterlimit="10" x1="45.645" y1="30.94" x2="49.552" y2="39.095"/>
<polygon fill="none" stroke="#000000" stroke-width="4" stroke-miterlimit="10" points="41.057,19.982 46.409,19.982 61.699,24.824 
	59.915,22.021 60.679,16.16 53.289,8.77 45.898,10.553 "/>
<polyline fill="none" points="53.375,55.318 62.973,57.188 62.973,54.129 65.438,51.242 64.078,49.883 56.008,50.986 "/>
<line fill="none" stroke="#000000" stroke-width="4" stroke-miterlimit="10" x1="53.119" y1="55.573" x2="56.857" y2="50.816"/>
<line fill="none" stroke="#000000" stroke-width="4" stroke-miterlimit="10" x1="97.93" y1="56.35" x2="64.211" y2="52.5"/>
<line fill="none" stroke="#000000" stroke-width="4" stroke-miterlimit="10" x1="86.672" y1="29.411" x2="99.697" y2="51.6"/>
<circle fill="none" stroke="#000000" stroke-width="4" stroke-miterlimit="10" cx="99.857" cy="54.821" r="3.398"/>
<g id="Layer_1_3_">
</g>
<polyline fill="none" points="42.077,19.048 43.775,30.26 46.154,29.921 49.042,38.755 45.475,40.284 42.077,43.172 43.605,47.505 
	56.008,50.986 64.502,50.052 65.775,51.836 62.633,54.725 62.973,57.188 54.054,55.402 50.486,56.934 34.177,50.562 26.277,32.469 
	"/>
<polyline fill="none" stroke="#000000" stroke-width="4" stroke-miterlimit="10" points="34.177,50.562 50.486,56.934 
	54.054,55.402 62.973,57.188 62.973,54.129 65.775,51.836 64.502,50.052 56.857,50.816 43.605,47.505 39.527,37.056 44.461,29.583 
	"/>
<line fill="none" stroke="#000000" stroke-width="4" stroke-miterlimit="10" x1="26.277" y1="32.469" x2="34.177" y2="50.562"/>
</svg>
