<?xml version="1.0" encoding="utf-8"?>
<!-- Generator: Adobe Illustrator 16.2.1, SVG Export Plug-In . SVG Version: 6.00 Build 0)  -->
<!DOCTYPE svg PUBLIC "-//W3C//DTD SVG 1.1//EN" "http://www.w3.org/Graphics/SVG/1.1/DTD/svg11.dtd">
<svg version="1.1" id="Layer_1" xmlns="http://www.w3.org/2000/svg" xmlns:xlink="http://www.w3.org/1999/xlink" x="0px" y="0px"
	 width="200px" height="200px" viewBox="0 0 200 200" enable-background="new 0 0 200 200" xml:space="preserve">
<g>
	<path fill="#FFFFFF" d="M100.5,186C52.804,186,14,147.196,14,99.5S52.804,13,100.5,13S187,51.804,187,99.5S148.196,186,100.5,186z"
		/>
	<path fill="#231F20" d="M100.5,23c42.183,0,76.5,34.318,76.5,76.5c0,42.183-34.317,76.5-76.5,76.5C58.318,176,24,141.683,24,99.5
		C24,57.318,58.318,23,100.5,23 M100.5,3C47.205,3,4,46.205,4,99.5c0,53.296,43.205,96.5,96.5,96.5c53.296,0,96.5-43.204,96.5-96.5
		C197,46.205,153.796,3,100.5,3L100.5,3z"/>
</g>
</svg>
