<?xml version="1.0" encoding="utf-8"?>
<!-- Generator: Adobe Illustrator 16.2.1, SVG Export Plug-In . SVG Version: 6.00 Build 0)  -->
<!DOCTYPE svg PUBLIC "-//W3C//DTD SVG 1.1//EN" "http://www.w3.org/Graphics/SVG/1.1/DTD/svg11.dtd">
<svg version="1.1" xmlns="http://www.w3.org/2000/svg" xmlns:xlink="http://www.w3.org/1999/xlink" x="0px" y="0px" width="100px"
	 height="110px" viewBox="0 0 100 110" enable-background="new 0 0 100 110" xml:space="preserve">
<g id="Layer_2">
	<circle fill="#2A3E50" stroke="#FFFFFF" stroke-width="3" stroke-miterlimit="10" cx="-182.5" cy="56.913" r="48.087"/>
	<polygon fill="#E9523B" points="-159.333,100.667 -154.228,19.833 -178.668,8 -202.333,13.667 -200,28.667 -216.667,35 
		-215.333,54.667 -202.333,72.667 -198,105.667 	"/>
	<polygon fill="#ECF0F1" points="-190.333,86 -190.333,99.333 -164.333,97.667 -166.369,84.691 	"/>
	<polyline fill="none" stroke="#000000" stroke-width="2" stroke-miterlimit="10" points="-201.564,27.809 -217.771,34.755 
		-214.941,56.366 -201.049,74.117 -197.962,108.076 -193.588,108.333 -159.115,101.644 -156.027,50.191 -154.228,19.833 -178.668,8 
		-201.049,13.402 -200.792,41.443 	"/>
	
		<line fill="none" stroke="#000000" stroke-width="2" stroke-miterlimit="10" x1="-160.916" y1="75.402" x2="-200.277" y2="82.349"/>
	<polygon fill="none" stroke="#000000" stroke-width="2" stroke-miterlimit="10" points="-166.369,84.691 -165.481,97.545 
		-187.662,100.614 -189.215,87.569 	"/>
	<polygon fill="#C23F2A" points="-186.635,16.395 -179.769,12 -161.364,21.339 -163.562,35.896 -165.21,61.167 -175.373,55.124 
		-173.45,32.601 	"/>
	<polygon fill="#ECF0F1" points="-211.631,40.5 -214,40.5 -212.816,47.842 -209.263,49.5 	"/>
	<circle fill="#009E85" stroke="#FFFFFF" stroke-width="3" stroke-miterlimit="10" cx="49.914" cy="53.913" r="48.087"/>
	
		<ellipse transform="matrix(0.8524 -0.5229 0.5229 0.8524 -21.8539 36.3499)" fill="none" stroke="#000000" stroke-width="2" stroke-miterlimit="10" cx="53.464" cy="56.888" rx="8.192" ry="38.072"/>
	
		<ellipse transform="matrix(0.9725 0.2329 -0.2329 0.9725 14.4307 -10.3539)" fill="none" stroke="#000000" stroke-width="2" stroke-miterlimit="10" cx="51.055" cy="55.924" rx="8.192" ry="38.071"/>
	<circle fill="#C23F2A" stroke="#000000" stroke-width="2" stroke-miterlimit="10" cx="49.71" cy="58.557" r="7.446"/>
	
		<ellipse transform="matrix(0.5229 0.8524 -0.8524 0.5229 71.1068 -15.1943)" fill="none" stroke="#000000" stroke-width="2" stroke-miterlimit="10" cx="49.127" cy="55.924" rx="8.192" ry="38.071"/>
	
		<ellipse transform="matrix(-0.233 0.9725 -0.9725 -0.233 113.7699 22.115)" fill="none" stroke="#000000" stroke-width="2" stroke-miterlimit="10" cx="48.164" cy="55.924" rx="8.193" ry="38.072"/>
	<circle fill="#C23F2A" stroke="#000000" stroke-width="2" stroke-miterlimit="10" cx="29.062" cy="74.771" r="6.506"/>
	<circle fill="#E87F1F" stroke="#000000" stroke-width="2" stroke-miterlimit="10" cx="72.526" cy="35.372" r="6.506"/>
	<circle fill="#C23F2A" stroke="#000000" stroke-width="2" stroke-miterlimit="10" cx="41.797" cy="10.045" r="3.504"/>
	<circle fill="#2A3E50" stroke="#000000" stroke-width="2" stroke-miterlimit="10" cx="68.539" cy="88.906" r="3.505"/>
	<path fill="#F2C204" stroke="#000000" stroke-width="2" stroke-miterlimit="10" d="M44.757,40.88c0,5.099-4.135,9.234-9.236,9.234
		s-9.237-4.136-9.237-9.234c0-5.104,4.135-9.236,9.237-9.236S44.757,35.775,44.757,40.88z"/>
	<circle fill="#C23F2A" stroke="#000000" stroke-width="2" stroke-miterlimit="10" cx="79.728" cy="59.163" r="4.052"/>
</g>
<g id="Layer_1">
	<polygon fill="#33495E" stroke="#000000" stroke-width="2" stroke-miterlimit="10" points="715.5,82 694.5,80.5 629,110.5 
		595,135.5 626.5,147 	"/>
	<polyline fill="none" stroke="#000000" stroke-width="2" stroke-miterlimit="10" points="670,211 703,142.5 749.5,170 749,178 
		771,176 772.5,158 730,94.5 732,75.5 720.5,82.5 710.501,86.167 	"/>
	<line fill="none" stroke="#000000" stroke-width="2" stroke-miterlimit="10" x1="730.5" y1="98" x2="717" y2="107.5"/>
	<polyline fill="none" stroke="#000000" stroke-width="2" stroke-miterlimit="10" points="709.5,88 742,151 660.5,133 	"/>
	<polygon fill="none" stroke="#000000" stroke-width="2" stroke-miterlimit="10" points="620,69.5 630.5,69.5 660.5,79 657,73.5 
		658.5,62 644,47.5 629.5,51 	"/>
	<polyline fill="none" stroke="#000000" stroke-width="2" stroke-miterlimit="10" points="656,79.5 648,90.5 643.5,89 633,95 
		630,89 626.5,89.5 622,68 	"/>
	<polyline fill="none" stroke="#000000" stroke-width="2" stroke-miterlimit="10" points="623.5,91.5 617,103 625,123.5 651,130 
		666,128.5 668.5,132 663,136.5 663,142.5 645.5,139 638.5,142 606.5,129.5 591,94 	"/>
	<polyline fill="none" stroke="#000000" stroke-width="2" stroke-miterlimit="10" points="629,91 640.5,115.5 655.5,121.5 	"/>
</g>
</svg>
