<?xml version="1.0" encoding="utf-8"?>
<!-- Generator: Adobe Illustrator 16.2.1, SVG Export Plug-In . SVG Version: 6.00 Build 0)  -->
<!DOCTYPE svg PUBLIC "-//W3C//DTD SVG 1.1//EN" "http://www.w3.org/Graphics/SVG/1.1/DTD/svg11.dtd">
<svg version="1.1" xmlns="http://www.w3.org/2000/svg" xmlns:xlink="http://www.w3.org/1999/xlink" x="0px" y="0px" width="100px"
	 height="110px" viewBox="0 0 100 110" enable-background="new 0 0 100 110" xml:space="preserve">
<g id="Layer_2">
	<circle fill="#009E85" stroke="#FFFFFF" stroke-width="3" stroke-miterlimit="10" cx="49.914" cy="52.913" r="48.087"/>
	<g>
		<polygon fill="#F2C204" stroke="#000000" stroke-width="2" stroke-miterlimit="10" points="74.14,88.294 45.838,51.231 
			20.94,20.824 12.66,13.071 5.826,18.88 11.721,28.662 37.564,56.81 69.744,92.029 68.19,93.352 70.234,95.755 77.736,89.377 
			75.692,86.972 		"/>
		<polygon fill="#ECF0F1" points="55.166,62.53 48.064,68.565 66.508,88.634 71.09,84.248 		"/>
		<line fill="none" stroke="#000000" stroke-width="2" stroke-miterlimit="10" x1="75.507" y1="87.132" x2="68.715" y2="92.905"/>
		<line fill="none" stroke="#000000" stroke-width="2" stroke-miterlimit="10" x1="69.191" y1="80.93" x2="64.751" y2="87.11"/>
		<line fill="none" stroke="#000000" stroke-width="2" stroke-miterlimit="10" x1="66.117" y1="76.702" x2="60.106" y2="81.442"/>
		<line fill="none" stroke="#000000" stroke-width="2" stroke-miterlimit="10" x1="55.944" y1="77.768" x2="62.302" y2="71.809"/>
		<line fill="none" stroke="#000000" stroke-width="2" stroke-miterlimit="10" x1="63.415" y1="74.746" x2="60.502" y2="77.224"/>
		<line fill="none" stroke="#000000" stroke-width="2" stroke-miterlimit="10" x1="61.994" y1="84.273" x2="64.113" y2="82.288"/>
		<line fill="none" stroke="#000000" stroke-width="2" stroke-miterlimit="10" x1="58.059" y1="69.87" x2="52.404" y2="73.198"/>
		<line fill="none" stroke="#000000" stroke-width="2" stroke-miterlimit="10" x1="56.299" y1="64.339" x2="49.026" y2="71.26"/>
		<polygon fill="none" stroke="#000000" stroke-width="2" stroke-miterlimit="10" points="74.14,88.294 45.838,51.231 20.94,20.824 
			12.66,13.071 5.826,18.88 11.721,28.662 37.564,56.81 69.744,92.029 68.19,93.352 70.234,95.755 77.736,89.377 75.692,86.972 		
			"/>
	</g>
	<g>
		<circle fill="#ECF0F1" stroke="#000000" stroke-width="2" stroke-miterlimit="10" cx="44.543" cy="36.43" r="10.139"/>
		<path fill="none" stroke="#C23F2A" stroke-width="2" stroke-miterlimit="10" d="M39.422,28.652c0,0,4.6,8.326-1.666,15.383"/>
		<path fill="none" stroke="#C23F2A" stroke-width="2" stroke-miterlimit="10" d="M50.138,27.218c0,0-5.956,8.934,0.767,16.507"/>
	</g>
</g>
<g id="Layer_1">
</g>
</svg>
